<svg width="48" height="49" viewBox="0 0 48 49" fill="none" xmlns="http://www.w3.org/2000/svg">
<path d="M38 14.5H10C9.46957 14.5 8.96086 14.7107 8.58579 15.0858C8.21071 15.4609 8 15.9696 8 16.5V42.5C8 43.0304 8.21071 43.5391 8.58579 43.9142C8.96086 44.2893 9.46957 44.5 10 44.5H38C38.5304 44.5 39.0391 44.2893 39.4142 43.9142C39.7893 43.5391 40 43.0304 40 42.5V16.5C40 15.9696 39.7893 15.4609 39.4142 15.0858C39.0391 14.7107 38.5304 14.5 38 14.5Z" stroke="#0DB3FF" stroke-width="4" stroke-linecap="round" stroke-linejoin="round"/>
<path d="M17 18.5V11.5C17 10.5807 17.1811 9.67049 17.5328 8.82122C17.8846 7.97194 18.4002 7.20026 19.0503 6.55025C19.7003 5.90024 20.4719 5.38463 21.3212 5.03284C22.1705 4.68106 23.0807 4.5 24 4.5C24.9193 4.5 25.8295 4.68106 26.6788 5.03284C27.5281 5.38463 28.2997 5.90024 28.9497 6.55025C29.5998 7.20026 30.1154 7.97194 30.4672 8.82122C30.8189 9.67049 31 10.5807 31 11.5V18.5" stroke="#0DB3FF" stroke-width="4" stroke-linecap="round" stroke-linejoin="round"/>
</svg>
