<svg width="40" height="40" viewBox="0 0 40 40" fill="none" xmlns="http://www.w3.org/2000/svg">
<path d="M28.3333 15.0007V11.6673C28.3333 9.82637 26.8409 8.33398 25 8.33398H8.33333C6.49238 8.33398 5 9.82637 5 11.6673V21.6673C5 23.5083 6.49238 25.0007 8.33333 25.0007H11.6667M15 31.6673H31.6667C33.5076 31.6673 35 30.1749 35 28.334V18.334C35 16.493 33.5076 15.0007 31.6667 15.0007H15C13.1591 15.0007 11.6667 16.493 11.6667 18.334V28.334C11.6667 30.1749 13.1591 31.6673 15 31.6673ZM26.6667 23.334C26.6667 25.1749 25.1743 26.6673 23.3333 26.6673C21.4924 26.6673 20 25.1749 20 23.334C20 21.493 21.4924 20.0007 23.3333 20.0007C25.1743 20.0007 26.6667 21.493 26.6667 23.334Z" stroke="#0DB3FF" stroke-width="3" stroke-linecap="round" stroke-linejoin="round"/>
</svg>
