<svg width="25" height="26" viewBox="0 0 25 26" fill="none" xmlns="http://www.w3.org/2000/svg">
<path d="M12.5 25.5C14.2098 25.5 15.8197 25.1722 17.3298 24.5167C18.8398 23.8694 20.1663 22.97 21.3088 21.8189C22.4592 20.6678 23.362 19.3409 24.0172 17.8381C24.6723 16.3273 25 14.7126 25 12.994C25 11.2834 24.6723 9.67666 24.0172 8.17386C23.362 6.66306 22.4592 5.33214 21.3088 4.18106C20.1663 3.02997 18.8359 2.13069 17.3178 1.48322C15.8078 0.827737 14.1978 0.5 12.488 0.5C10.7782 0.5 9.16827 0.827737 7.6582 1.48322C6.14813 2.13069 4.81783 3.02997 3.66731 4.18106C2.52477 5.33214 1.62592 6.66306 0.970758 8.17386C0.323586 9.67666 0 11.2834 0 12.994C0 14.7126 0.323586 16.3273 0.970758 17.8381C1.62592 19.3409 2.52877 20.6678 3.6793 21.8189C4.82981 22.97 6.16011 23.8694 7.67019 24.5167C9.18025 25.1722 10.7902 25.5 12.5 25.5ZM11.1697 18.9412C10.922 18.9412 10.6983 18.8892 10.4986 18.7853C10.2988 18.6734 10.1111 18.5056 9.93528 18.2817L7.04698 14.8046C6.93512 14.6527 6.84723 14.5048 6.78331 14.3609C6.72739 14.209 6.69942 14.0532 6.69942 13.8933C6.69942 13.5575 6.81528 13.2738 7.04698 13.042C7.27869 12.8022 7.56233 12.6823 7.89789 12.6823C8.09764 12.6823 8.27741 12.7262 8.4372 12.8141C8.597 12.8941 8.7568 13.034 8.91659 13.2338L11.1337 16.0156L15.9636 8.29377C16.2512 7.83812 16.6067 7.61031 17.0302 7.61031C17.3498 7.61031 17.6334 7.71423 17.8811 7.92206C18.1367 8.12989 18.2647 8.40167 18.2647 8.73741C18.2647 8.88928 18.2327 9.04117 18.1688 9.19305C18.1128 9.34492 18.0409 9.48881 17.953 9.6247L12.3562 18.2817C12.2124 18.4895 12.0366 18.6534 11.8289 18.7734C11.6291 18.8853 11.4094 18.9412 11.1697 18.9412Z" fill="#0DB3FF"/>
</svg>
