<svg width="40" height="41" viewBox="0 0 40 41" fill="none" xmlns="http://www.w3.org/2000/svg">
<path d="M6.66667 18.8333H16.6667C17.1087 18.8333 17.5326 18.6577 17.8452 18.3452C18.1577 18.0326 18.3333 17.6087 18.3333 17.1667V7.16667C18.3333 6.72464 18.1577 6.30072 17.8452 5.98816C17.5326 5.67559 17.1087 5.5 16.6667 5.5H6.66667C6.22464 5.5 5.80072 5.67559 5.48816 5.98816C5.17559 6.30072 5 6.72464 5 7.16667V17.1667C5 17.6087 5.17559 18.0326 5.48816 18.3452C5.80072 18.6577 6.22464 18.8333 6.66667 18.8333ZM8.33333 8.83333H15V15.5H8.33333V8.83333ZM33.3333 5.5H23.3333C22.8913 5.5 22.4674 5.67559 22.1548 5.98816C21.8423 6.30072 21.6667 6.72464 21.6667 7.16667V17.1667C21.6667 17.6087 21.8423 18.0326 22.1548 18.3452C22.4674 18.6577 22.8913 18.8333 23.3333 18.8333H33.3333C33.7754 18.8333 34.1993 18.6577 34.5118 18.3452C34.8244 18.0326 35 17.6087 35 17.1667V7.16667C35 6.72464 34.8244 6.30072 34.5118 5.98816C34.1993 5.67559 33.7754 5.5 33.3333 5.5ZM31.6667 15.5H25V8.83333H31.6667V15.5ZM16.6667 35.5C17.1087 35.5 17.5326 35.3244 17.8452 35.0118C18.1577 34.6993 18.3333 34.2754 18.3333 33.8333V23.8333C18.3333 23.3913 18.1577 22.9674 17.8452 22.6548C17.5326 22.3423 17.1087 22.1667 16.6667 22.1667H6.66667C6.22464 22.1667 5.80072 22.3423 5.48816 22.6548C5.17559 22.9674 5 23.3913 5 23.8333V33.8333C5 34.2754 5.17559 34.6993 5.48816 35.0118C5.80072 35.3244 6.22464 35.5 6.66667 35.5H16.6667ZM8.33333 25.5H15V32.1667H8.33333V25.5ZM30 23.8333H26.6667V27.1667H23.3333V30.5H26.6667V33.8333H30V30.5H33.3333V27.1667H30V23.8333Z" fill="#0DB3FF"/>
</svg>
