<svg width="38" height="38" viewBox="0 0 38 38" fill="none" xmlns="http://www.w3.org/2000/svg">
<g clip-path="url(#clip0_2098_16590)">
<path d="M19.0009 36.7342C16.6721 36.7342 14.3662 36.2756 12.2147 35.3844C10.0632 34.4932 8.10824 33.187 6.46155 31.5403C4.81486 29.8936 3.50863 27.9387 2.61745 25.7872C1.72626 23.6357 1.26758 21.3297 1.26758 19.0009C1.26758 16.6721 1.72626 14.3662 2.61745 12.2147C3.50863 10.0632 4.81486 8.10824 6.46155 6.46155C8.10824 4.81486 10.0632 3.50863 12.2147 2.61745C14.3662 1.72626 16.6721 1.26758 19.0009 1.26758C23.7041 1.26758 28.2146 3.13591 31.5403 6.46155C34.8659 9.7872 36.7342 14.2977 36.7342 19.0009C36.7342 23.7041 34.8659 28.2146 31.5403 31.5403C28.2146 34.8659 23.7041 36.7342 19.0009 36.7342ZM19.0009 36.7342V16.4676C19.0009 15.1238 19.5347 13.8351 20.4849 12.8849C21.4351 11.9347 22.7238 11.4009 24.0676 11.4009H25.3342M12.6676 21.5342H25.3342" stroke="#0DB3FF" stroke-width="3"/>
</g>
<defs>
<clipPath id="clip0_2098_16590">
<rect width="38" height="38" fill="white"/>
</clipPath>
</defs>
</svg>
