<svg width="32" height="33" viewBox="0 0 32 33" fill="none" xmlns="http://www.w3.org/2000/svg">
<path fill-rule="evenodd" clip-rule="evenodd" d="M6.53195 14.8992H9.64502C9.78775 12.425 10.2589 10.1457 10.9855 8.31087C8.66725 9.73337 6.99943 12.1128 6.53195 14.8992ZM15.9992 3.69922C8.92997 3.69922 3.19922 9.42997 3.19922 16.4992C3.19922 23.5685 8.92997 29.2992 15.9992 29.2992C23.0685 29.2992 28.7992 23.5685 28.7992 16.4992C28.7992 9.42997 23.0685 3.69922 15.9992 3.69922ZM15.9992 6.89922C15.8775 6.89922 15.6278 6.94998 15.2547 7.31817C14.8748 7.69314 14.4592 8.31507 14.0757 9.20989C13.4538 10.661 12.9991 12.6362 12.851 14.8992H19.1474C18.9994 12.6362 18.5446 10.661 17.9227 9.20989C17.5392 8.31507 17.1236 7.69314 16.7437 7.31817C16.3706 6.94998 16.1209 6.89922 15.9992 6.89922ZM22.3534 14.8992C22.2107 12.425 21.7396 10.1457 21.0129 8.31087C23.3312 9.73337 24.999 12.1128 25.4665 14.8992H22.3534ZM19.1474 18.0992H12.851C12.9991 20.3623 13.4538 22.3375 14.0757 23.7885C14.4592 24.6834 14.8748 25.3053 15.2547 25.6803C15.6278 26.0485 15.8775 26.0992 15.9992 26.0992C16.1209 26.0992 16.3706 26.0485 16.7437 25.6803C17.1236 25.3053 17.5392 24.6834 17.9227 23.7885C18.5446 22.3375 18.9994 20.3623 19.1474 18.0992ZM21.0129 24.6876C21.7396 22.8527 22.2107 20.5734 22.3534 18.0992H25.4665C24.999 20.8857 23.3312 23.2651 21.0129 24.6876ZM10.9855 24.6876C10.2589 22.8527 9.78775 20.5734 9.64502 18.0992H6.53195C6.99943 20.8857 8.66725 23.2651 10.9855 24.6876Z" fill="#0DB3FF"/>
</svg>
