<svg width="40" height="40" viewBox="0 0 40 40" fill="none" xmlns="http://www.w3.org/2000/svg">
<path d="M6.66602 1.66602C4.81602 1.66602 3.33268 3.14935 3.33268 4.99935V11.666C3.33268 13.516 4.81602 14.9993 6.66602 14.9993H1.66602V18.3327H21.666V14.9993H16.666C18.516 14.9993 19.9993 13.516 19.9993 11.666V4.99935C19.9993 3.14935 18.516 1.66602 16.666 1.66602H6.66602ZM6.66602 4.99935H16.666V11.666H6.66602V4.99935ZM4.99935 21.666V33.3327H16.666V29.9993H8.33268V21.666H4.99935ZM23.3327 21.666C21.4827 21.666 19.9993 23.1493 19.9993 24.9993V31.666C19.9993 33.516 21.4827 34.9994 23.3327 34.9994H18.3327V38.3327H38.3327V34.9994H33.3327C35.1827 34.9994 36.666 33.516 36.666 31.666V24.9993C36.666 23.1493 35.1827 21.666 33.3327 21.666H23.3327ZM23.3327 24.9993H33.3327V31.666H23.3327V24.9993Z" fill="#0DB3FF"/>
</svg>
