<svg width="40" height="40" viewBox="0 0 40 40" fill="none" xmlns="http://www.w3.org/2000/svg">
<path d="M25.8833 20.882C26.1174 20.6476 26.2489 20.3299 26.2489 19.9986C26.2489 19.6674 26.1174 19.3497 25.8833 19.1153L21.7167 14.9486C21.6022 14.8258 21.4642 14.7273 21.3109 14.659C21.1576 14.5907 20.992 14.5539 20.8242 14.551C20.6564 14.548 20.4897 14.5789 20.334 14.6418C20.1784 14.7046 20.037 14.7982 19.9183 14.9169C19.7996 15.0356 19.706 15.177 19.6431 15.3326C19.5803 15.4883 19.5494 15.655 19.5523 15.8228C19.5553 15.9907 19.592 16.1562 19.6604 16.3095C19.7287 16.4629 19.8272 16.6009 19.95 16.7153L21.9833 18.7486H10C9.66848 18.7486 9.35054 18.8803 9.11612 19.1147C8.8817 19.3492 8.75 19.6671 8.75 19.9986C8.75 20.3301 8.8817 20.6481 9.11612 20.8825C9.35054 21.1169 9.66848 21.2486 10 21.2486H21.9833L19.95 23.282C19.8272 23.3964 19.7287 23.5344 19.6604 23.6877C19.592 23.8411 19.5553 24.0066 19.5523 24.1744C19.5494 24.3423 19.5803 24.509 19.6431 24.6646C19.706 24.8203 19.7996 24.9617 19.9183 25.0804C20.037 25.1991 20.1784 25.2926 20.334 25.3555C20.4897 25.4184 20.6564 25.4492 20.8242 25.4463C20.992 25.4433 21.1576 25.4066 21.3109 25.3383C21.4642 25.2699 21.6022 25.1714 21.7167 25.0486L25.8833 20.882Z" fill="#187CFF"/>
<path fill-rule="evenodd" clip-rule="evenodd" d="M23.2417 2.08203H25.0917C27.37 2.08203 29.2083 2.08203 30.6533 2.27703C32.1533 2.47703 33.4167 2.91036 34.42 3.91203C35.4233 4.91536 35.8533 6.1787 36.0567 7.6787C36.25 9.1237 36.25 10.962 36.25 13.2404V26.757C36.25 29.0354 36.25 30.8737 36.0567 32.3187C35.8533 33.8187 35.4233 35.082 34.42 36.0854C33.4167 37.0887 32.1533 37.5187 30.6533 37.722C29.2083 37.9154 27.37 37.9154 25.0917 37.9154H23.2417C20.9633 37.9154 19.125 37.9154 17.68 37.722C16.18 37.5187 14.9167 37.0887 13.9133 36.0854C13.2467 35.4187 12.8333 34.637 12.5717 33.7487C10.9867 33.747 9.665 33.7287 8.595 33.5854C7.32167 33.4137 6.21833 33.0437 5.33667 32.162C4.455 31.2804 4.085 30.1787 3.91333 28.9037C3.75 27.687 3.75 26.1437 3.75 24.2537V15.7437C3.75 13.8554 3.75 12.3137 3.91333 11.0937C4.085 9.82203 4.455 8.7187 5.33667 7.83703C6.21833 6.95536 7.32 6.58536 8.595 6.4137C9.665 6.27036 10.9867 6.25203 12.5717 6.25036C12.8333 5.36203 13.2483 4.58036 13.9133 3.9137C14.9167 2.91036 16.18 2.48036 17.68 2.2787C19.125 2.0837 20.9633 2.0837 23.2417 2.0837V2.08203ZM12.0833 26.757C12.0833 28.507 12.0833 29.9954 12.1717 31.247C10.78 31.242 9.74667 31.217 8.92833 31.107C7.93167 30.9737 7.445 30.7337 7.105 30.3937C6.765 30.0554 6.525 29.567 6.39167 28.5704C6.25333 27.5387 6.25 26.1654 6.25 24.1654V15.832C6.25 13.832 6.25333 12.4587 6.39167 11.427C6.525 10.4304 6.765 9.9437 7.105 9.6037C7.44333 9.2637 7.93167 9.0237 8.92833 8.89036C9.74667 8.78036 10.78 8.75703 12.1717 8.75036C12.0833 9.9987 12.0833 11.4904 12.0833 13.2404V13.332C12.0833 13.6636 12.215 13.9815 12.4494 14.2159C12.6839 14.4503 13.0018 14.582 13.3333 14.582C13.6649 14.582 13.9828 14.4503 14.2172 14.2159C14.4516 13.9815 14.5833 13.6636 14.5833 13.332C14.5833 10.9404 14.5867 9.27036 14.755 8.01203C14.92 6.7887 15.2217 6.14203 15.6817 5.68036C16.1433 5.2187 16.79 4.9187 18.015 4.7537C19.2733 4.58536 20.9417 4.58203 23.3333 4.58203H25C27.3917 4.58203 29.06 4.58536 30.32 4.7537C31.5433 4.9187 32.19 5.22036 32.6517 5.68036C33.1133 6.14203 33.4133 6.7887 33.5783 8.0137C33.7467 9.27036 33.75 10.9404 33.75 13.332V26.6654C33.75 29.057 33.7467 30.7254 33.5783 31.9854C33.4133 33.2087 33.1117 33.8554 32.6517 34.317C32.19 34.7787 31.5433 35.0787 30.3183 35.2437C29.06 35.412 27.3917 35.4154 25 35.4154H23.3333C20.9417 35.4154 19.2717 35.412 18.0133 35.2437C16.79 35.0787 16.1433 34.777 15.6817 34.317C15.22 33.8554 14.92 33.2087 14.755 31.9837C14.5867 30.7254 14.5833 29.057 14.5833 26.6654C14.5833 26.3338 14.4516 26.0159 14.2172 25.7815C13.9828 25.5471 13.6649 25.4154 13.3333 25.4154C13.0018 25.4154 12.6839 25.5471 12.4494 25.7815C12.215 26.0159 12.0833 26.3338 12.0833 26.6654V26.757Z" fill="#187CFF"/>
</svg>
