<svg width="32" height="33" viewBox="0 0 32 33" fill="none" xmlns="http://www.w3.org/2000/svg">
<path d="M27.862 4.63648C26.6123 3.3868 24.5862 3.3868 23.3365 4.63648L11.1992 16.7737V21.2992H15.7247L27.862 9.16196C29.1116 7.91228 29.1116 5.88615 27.862 4.63648Z" fill="#0DB3FF"/>
<path fill-rule="evenodd" clip-rule="evenodd" d="M3.19922 10.0992C3.19922 8.33191 4.63191 6.89922 6.39922 6.89922H12.7992C13.6829 6.89922 14.3992 7.61556 14.3992 8.49922C14.3992 9.38287 13.6829 10.0992 12.7992 10.0992H6.39922V26.0992H22.3992V19.6992C22.3992 18.8156 23.1156 18.0992 23.9992 18.0992C24.8829 18.0992 25.5992 18.8156 25.5992 19.6992V26.0992C25.5992 27.8665 24.1665 29.2992 22.3992 29.2992H6.39922C4.63191 29.2992 3.19922 27.8665 3.19922 26.0992V10.0992Z" fill="#0DB3FF"/>
</svg>
