<svg width="40" height="40" viewBox="0 0 40 40" fill="none" xmlns="http://www.w3.org/2000/svg">
<path d="M6.66667 6.66602V5.16602H5.16667V6.66602H6.66667ZM33.3333 6.66602H34.8333V5.16602H33.3333V6.66602ZM10.606 18.9387C10.0202 19.5245 10.0202 20.4742 10.606 21.06C11.1918 21.6458 12.1415 21.6458 12.7273 21.06L10.606 18.9387ZM16.6667 14.9993L17.7273 13.9387C17.1415 13.3529 16.1918 13.3529 15.606 13.9387L16.6667 14.9993ZM21.6667 19.9993L20.606 21.06C21.1918 21.6458 22.1415 21.6458 22.7273 21.06L21.6667 19.9993ZM29.394 14.3933C29.9798 13.8076 29.9798 12.8578 29.394 12.272C28.8082 11.6862 27.8585 11.6862 27.2727 12.272L29.394 14.3933ZM12.2727 33.9387C11.6869 34.5245 11.6869 35.4742 12.2727 36.06C12.8585 36.6458 13.8082 36.6458 14.394 36.06L12.2727 33.9387ZM20 28.3327L21.0607 27.272C20.4749 26.6862 19.5251 26.6862 18.9393 27.272L20 28.3327ZM25.606 36.06C26.1918 36.6458 27.1415 36.6458 27.7273 36.06C28.3131 35.4742 28.3131 34.5245 27.7273 33.9387L25.606 36.06ZM5 5.16602C4.17157 5.16602 3.5 5.83759 3.5 6.66602C3.5 7.49444 4.17157 8.16602 5 8.16602V5.16602ZM35 8.16602C35.8284 8.16602 36.5 7.49444 36.5 6.66602C36.5 5.83759 35.8284 5.16602 35 5.16602V8.16602ZM6.66667 8.16602H33.3333V5.16602H6.66667V8.16602ZM31.8333 6.66602V26.666H34.8333V6.66602H31.8333ZM31.6667 26.8327H8.33333V29.8327H31.6667V26.8327ZM8.16667 26.666V6.66602H5.16667V26.666H8.16667ZM8.33333 26.8327C8.24129 26.8327 8.16667 26.7581 8.16667 26.666H5.16667C5.16667 28.4149 6.58443 29.8327 8.33333 29.8327V26.8327ZM31.8333 26.666C31.8333 26.7581 31.7587 26.8327 31.6667 26.8327V29.8327C33.4156 29.8327 34.8333 28.4149 34.8333 26.666H31.8333ZM12.7273 21.06L17.7273 16.06L15.606 13.9387L10.606 18.9387L12.7273 21.06ZM15.606 16.06L20.606 21.06L22.7273 18.9387L17.7273 13.9387L15.606 16.06ZM22.7273 21.06L29.394 14.3933L27.2727 12.272L20.606 18.9387L22.7273 21.06ZM14.394 36.06L21.0607 29.3933L18.9393 27.272L12.2727 33.9387L14.394 36.06ZM18.9393 29.3933L25.606 36.06L27.7273 33.9387L21.0607 27.272L18.9393 29.3933ZM5 8.16602H35V5.16602H5V8.16602Z" fill="#0DB3FF"/>
</svg>
