<svg width="40" height="40" viewBox="0 0 40 40" fill="none" xmlns="http://www.w3.org/2000/svg">
<path d="M28.334 1.68268L11.6673 1.66602C9.83398 1.66602 8.33398 3.16602 8.33398 4.99935V34.9994C8.33398 36.8327 9.83398 38.3327 11.6673 38.3327H28.334C30.1673 38.3327 31.6673 36.8327 31.6673 34.9994V4.99935C31.6673 3.16602 30.1673 1.68268 28.334 1.68268ZM28.334 29.9993H11.6673V9.99935H28.334V29.9993ZM17.234 23.816C17.884 24.466 18.934 24.466 19.584 23.816L25.484 17.916C25.6383 17.7617 25.7607 17.5785 25.8442 17.3769C25.9277 17.1753 25.9707 16.9592 25.9707 16.741C25.9707 16.5228 25.9277 16.3067 25.8442 16.1051C25.7607 15.9035 25.6383 15.7203 25.484 15.566C25.3297 15.4117 25.1465 15.2893 24.9449 15.2058C24.7433 15.1223 24.5272 15.0793 24.309 15.0793C24.0908 15.0793 23.8747 15.1223 23.6731 15.2058C23.4715 15.2893 23.2883 15.4117 23.134 15.566L18.4173 20.2827L17.234 19.0993C17.0797 18.945 16.8965 18.8226 16.6949 18.7391C16.4933 18.6556 16.2772 18.6126 16.059 18.6126C15.8408 18.6126 15.6247 18.6556 15.4231 18.7391C15.2215 18.8226 15.0383 18.945 14.884 19.0993C14.7297 19.2537 14.6073 19.4368 14.5238 19.6384C14.4403 19.8401 14.3973 20.0561 14.3973 20.2743C14.3973 20.4926 14.4403 20.7086 14.5238 20.9103C14.6073 21.1119 14.7297 21.295 14.884 21.4494L17.234 23.816Z" fill="#0DB3FF"/>
</svg>
