<svg width="40" height="40" viewBox="0 0 40 40" fill="none" xmlns="http://www.w3.org/2000/svg">
<path d="M6.66602 33.3346V30.0013H11.2493L10.5827 29.418C9.13824 28.1402 8.12435 26.6819 7.54102 25.043C6.95768 23.4041 6.66602 21.7513 6.66602 20.0846C6.66602 17.0013 7.58935 14.258 9.43602 11.8546C11.2827 9.4513 13.6927 7.8613 16.666 7.08464V10.5846C14.666 11.3069 13.0549 12.5357 11.8327 14.2713C10.6105 16.0069 9.99935 17.9446 9.99935 20.0846C9.99935 21.3346 10.2355 22.5502 10.7077 23.7313C11.1799 24.9124 11.916 26.0024 12.916 27.0013L13.3327 27.418V23.3346H16.666V33.3346H6.66602ZM23.3327 32.918V29.418C25.3327 28.6957 26.9438 27.4669 28.166 25.7313C29.3882 23.9957 29.9993 22.058 29.9993 19.918C29.9993 18.668 29.7632 17.453 29.291 16.273C28.8188 15.093 28.0827 14.0024 27.0827 13.0013L26.666 12.5846V16.668H23.3327V6.66797H33.3327V10.0013H28.7493L29.416 10.5846C30.7771 11.9457 31.7705 13.4252 32.396 15.023C33.0216 16.6207 33.3338 18.2524 33.3327 19.918C33.3327 23.0013 32.4088 25.7446 30.561 28.148C28.7132 30.5513 26.3038 32.1413 23.3327 32.918Z" fill="#187CFF"/>
</svg>
