<svg width="40" height="41" viewBox="0 0 40 41" fill="none" xmlns="http://www.w3.org/2000/svg">
<path fill-rule="evenodd" clip-rule="evenodd" d="M23.3327 12.166C22.8907 12.166 22.4667 12.3416 22.1542 12.6542C21.8416 12.9667 21.666 13.3907 21.666 13.8327V27.166C21.666 27.608 21.8416 28.032 22.1542 28.3445C22.4667 28.6571 22.8907 28.8327 23.3327 28.8327H29.9993C30.4414 28.8327 30.8653 28.6571 31.1779 28.3445C31.4904 28.032 31.666 27.608 31.666 27.166V13.8327C31.666 13.3907 31.4904 12.9667 31.1779 12.6542C30.8653 12.3416 30.4414 12.166 29.9993 12.166H23.3327ZM28.3327 15.4993H24.9993V25.4993H28.3327V15.4993Z" fill="#0DB3FF"/>
<path d="M9.9987 12.166C9.55667 12.166 9.13275 12.3416 8.82019 12.6542C8.50763 12.9667 8.33203 13.3907 8.33203 13.8327C8.33203 14.2747 8.50763 14.6986 8.82019 15.0112C9.13275 15.3238 9.55667 15.4993 9.9987 15.4993H16.6654C17.1074 15.4993 17.5313 15.3238 17.8439 15.0112C18.1564 14.6986 18.332 14.2747 18.332 13.8327C18.332 13.3907 18.1564 12.9667 17.8439 12.6542C17.5313 12.3416 17.1074 12.166 16.6654 12.166H9.9987ZM9.9987 18.8327C9.55667 18.8327 9.13275 19.0083 8.82019 19.3208C8.50763 19.6334 8.33203 20.0573 8.33203 20.4993C8.33203 20.9414 8.50763 21.3653 8.82019 21.6779C9.13275 21.9904 9.55667 22.166 9.9987 22.166H16.6654C17.1074 22.166 17.5313 21.9904 17.8439 21.6779C18.1564 21.3653 18.332 20.9414 18.332 20.4993C18.332 20.0573 18.1564 19.6334 17.8439 19.3208C17.5313 19.0083 17.1074 18.8327 16.6654 18.8327H9.9987ZM8.33203 27.166C8.33203 26.724 8.50763 26.3001 8.82019 25.9875C9.13275 25.6749 9.55667 25.4993 9.9987 25.4993H16.6654C17.1074 25.4993 17.5313 25.6749 17.8439 25.9875C18.1564 26.3001 18.332 26.724 18.332 27.166C18.332 27.608 18.1564 28.032 17.8439 28.3445C17.5313 28.6571 17.1074 28.8327 16.6654 28.8327H9.9987C9.55667 28.8327 9.13275 28.6571 8.82019 28.3445C8.50763 28.032 8.33203 27.608 8.33203 27.166Z" fill="#0DB3FF"/>
<path fill-rule="evenodd" clip-rule="evenodd" d="M6.66602 5.5C5.33993 5.5 4.06816 6.02678 3.13048 6.96447C2.1928 7.90215 1.66602 9.17392 1.66602 10.5V30.5C1.66602 31.8261 2.1928 33.0979 3.13048 34.0355C4.06816 34.9732 5.33993 35.5 6.66602 35.5H33.3327C34.6588 35.5 35.9305 34.9732 36.8682 34.0355C37.8059 33.0979 38.3327 31.8261 38.3327 30.5V10.5C38.3327 9.17392 37.8059 7.90215 36.8682 6.96447C35.9305 6.02678 34.6588 5.5 33.3327 5.5H6.66602ZM33.3327 8.83333H6.66602C6.22399 8.83333 5.80007 9.00893 5.4875 9.32149C5.17494 9.63405 4.99935 10.058 4.99935 10.5V30.5C4.99935 30.942 5.17494 31.366 5.4875 31.6785C5.80007 31.9911 6.22399 32.1667 6.66602 32.1667H33.3327C33.7747 32.1667 34.1986 31.9911 34.5112 31.6785C34.8238 31.366 34.9994 30.942 34.9994 30.5V10.5C34.9994 10.058 34.8238 9.63405 34.5112 9.32149C34.1986 9.00893 33.7747 8.83333 33.3327 8.83333Z" fill="#0DB3FF"/>
</svg>
